<svg width="31" height="31" viewBox="0 0 31 31" fill="none" xmlns="http://www.w3.org/2000/svg">
<g id="Mask group">
<mask id="mask0_3696_2836" style="mask-type:alpha" maskUnits="userSpaceOnUse" x="0" y="0" width="31" height="31">
<g id="Group">
<path id="Vector" d="M15.2931 30.72C23.7393 30.72 30.5863 23.8431 30.5863 15.36C30.5863 6.87691 23.7393 0 15.2931 0C6.84697 0 0 6.87691 0 15.36C0 23.8431 6.84697 30.72 15.2931 30.72Z" fill="#CC9B7A"/>
</g>
</mask>
<g mask="url(#mask0_3696_2836)">
<g id="Group_2">
<path id="Vector_2" d="M31.5284 -0.808594H0V30.7198H31.5284V-0.808594Z" fill="#270F59"/>
<path id="Vector_3" fill-rule="evenodd" clip-rule="evenodd" d="M12.6766 25.1151L11.0071 24.1572L13.5838 22.8628L13.2481 22.1885L10.2441 23.6971L10.2591 23.728L7.78306 22.307V19.7416L10.5798 18.3371L10.2441 17.6628L7.4346 19.0733L5.53006 17.7978V15.9702L8.32679 14.5657L7.99109 13.8914L5.53006 15.1269V12.9214L7.42484 11.6534L10.036 13.1257V15.504L8.74208 16.1542L9.07782 16.8285L10.4115 16.1588L11.7461 16.8285L12.0818 16.1542L10.7871 15.504V12.9214L12.8734 11.5251C12.977 11.4551 13.04 11.3373 13.04 11.2114V8.57141H12.2891V11.0092L10.2449 12.3783L7.78306 10.9904V7.84351L10.036 6.8041V10.0799H10.7871V6.45789L12.6586 5.59499L15.2931 6.91875V17.7669L9.4931 20.6799L9.82876 21.3543L15.2931 18.6101V23.8012L12.6766 25.1151ZM23.9296 19.5085C23.9296 19.9242 23.5932 20.2628 23.1786 20.2628C22.7648 20.2628 22.4276 19.9242 22.4276 19.5085C22.4276 19.0929 22.7648 18.7543 23.1786 18.7543C23.5932 18.7543 23.9296 19.0929 23.9296 19.5085ZM20.1746 22.9029C20.1746 23.3185 19.8381 23.6571 19.4236 23.6571C19.0098 23.6571 18.6726 23.3185 18.6726 22.9029C18.6726 22.4873 19.0098 22.1485 19.4236 22.1485C19.8381 22.1485 20.1746 22.4873 20.1746 22.9029ZM19.4236 7.81711C19.4236 7.4015 19.7608 7.06282 20.1746 7.06282C20.5892 7.06282 20.9256 7.4015 20.9256 7.81711C20.9256 8.23269 20.5892 8.57141 20.1746 8.57141C19.7608 8.57141 19.4236 8.23269 19.4236 7.81711ZM24.3052 13.4742C24.7196 13.4742 25.0561 13.8129 25.0561 14.2285C25.0561 14.6441 24.7196 14.9828 24.3052 14.9828C23.8913 14.9828 23.5541 14.6441 23.5541 14.2285C23.5541 13.8129 23.8913 13.4742 24.3052 13.4742ZM22.8565 14.6057C23.0247 15.2544 23.6074 15.7371 24.3052 15.7371C25.1335 15.7371 25.8071 15.0605 25.8071 14.2285C25.8071 13.3966 25.1335 12.72 24.3052 12.72C23.6074 12.72 23.0247 13.2027 22.8565 13.8514H16.0441V11.5885H20.1746C20.3826 11.5885 20.5501 11.4196 20.5501 11.2114V9.27215C21.196 9.10319 21.6766 8.51782 21.6766 7.81711C21.6766 6.98513 21.003 6.30854 20.1746 6.30854C19.347 6.30854 18.6726 6.98513 18.6726 7.81711C18.6726 8.51782 19.1532 9.10319 19.7991 9.27215V10.8343H16.0441V6.68568C16.0441 6.54237 15.9637 6.41263 15.8368 6.34851L12.8328 4.83994C12.7307 4.78865 12.612 4.78639 12.5076 4.83391L7.25061 7.25893C7.11843 7.32004 7.03206 7.4543 7.03206 7.60138V11.0092L4.94653 12.4062C4.84213 12.4763 4.77905 12.594 4.77905 12.72V18C4.77905 18.1259 4.84213 18.2436 4.94653 18.3138L7.03206 19.7099V22.5257C7.03206 22.6607 7.10416 22.7859 7.22132 22.8531L12.4784 25.8702C12.5362 25.9034 12.6 25.92 12.6646 25.92C12.7224 25.92 12.7802 25.9064 12.8328 25.88L15.8368 24.3714C15.9637 24.3073 16.0441 24.1769 16.0441 24.0342V20.6399H19.0481V21.4478C18.4022 21.6167 17.9216 22.2021 17.9216 22.9029C17.9216 23.7348 18.596 24.4114 19.4236 24.4114C20.252 24.4114 20.9256 23.7348 20.9256 22.9029C20.9256 22.2021 20.4449 21.6167 19.7991 21.4478V20.2628C19.7991 20.0546 19.6316 19.8857 19.4236 19.8857H16.0441V17.6228H20.7702L21.8899 18.7467C21.7577 18.9715 21.6766 19.2295 21.6766 19.5085C21.6766 20.3405 22.351 21.0171 23.1786 21.0171C24.0069 21.0171 24.6806 20.3405 24.6806 19.5085C24.6806 18.6766 24.0069 18 23.1786 18C22.9015 18 22.6439 18.0814 22.4209 18.2135L21.1914 16.9787C21.1209 16.9085 21.0255 16.8686 20.9256 16.8686H16.0441V14.6057H22.8565Z" fill="white"/>
</g>
</g>
</g>
</svg>
