<svg width="16" height="17" viewBox="0 0 16 17" fill="none" xmlns="http://www.w3.org/2000/svg">
<path d="M7.99992 15.1666C4.31802 15.1666 1.33325 12.1818 1.33325 8.49992C1.33325 4.81802 4.31802 1.83325 7.99992 1.83325C11.6818 1.83325 14.6666 4.81802 14.6666 8.49992C14.6666 12.1818 11.6818 15.1666 7.99992 15.1666ZM7.99992 13.8333C10.9455 13.8333 13.3333 11.4455 13.3333 8.49992C13.3333 5.5544 10.9455 3.16659 7.99992 3.16659C5.0544 3.16659 2.66659 5.5544 2.66659 8.49992C2.66659 11.4455 5.0544 13.8333 7.99992 13.8333ZM7.33325 5.16658H8.66658V6.49992H7.33325V5.16658ZM7.33325 7.83325H8.66658V11.8333H7.33325V7.83325Z" fill="#D1D5DB"/>
</svg>
