
<svg width="32" height="33" viewBox="0 0 32 33" fill="none" xmlns="http://www.w3.org/2000/svg">
<g id="Frame">
<path id="Vector" d="M13.3121 7.5966C14.8432 5.14654 17.5647 3.51672 20.6668 3.51672C25.4534 3.51672 29.3335 7.39692 29.3335 12.1834C29.3335 13.6238 28.9822 14.9822 28.3603 16.1774C29.7803 17.5147 30.6668 19.4122 30.6668 21.5167C30.6668 25.5669 27.3836 28.8501 23.3335 28.8501H12.0002C6.10912 28.8501 1.3335 24.0745 1.3335 18.1834C1.3335 12.2924 6.10912 7.51672 12.0002 7.51672C12.4443 7.51672 12.8821 7.54387 13.3121 7.5966ZM16.074 8.32231C18.7568 9.43188 20.8884 11.6044 21.9436 14.3149C22.3936 14.2286 22.8583 14.1834 23.3335 14.1834C24.3136 14.1834 25.249 14.3757 26.1036 14.7246C26.465 13.953 26.6668 13.0918 26.6668 12.1834C26.6668 8.86968 23.9806 6.18339 20.6668 6.18339C18.8238 6.18339 17.1747 7.01446 16.074 8.32231Z" fill="#414D5C"/>
</g>
</svg>
