<svg width="32" height="33" viewBox="0 0 32 33" fill="none" xmlns="http://www.w3.org/2000/svg">
<g id="Frame">
<path id="Vector" d="M22.6515 24.8501L24.2727 22.7426C24.5416 22.393 24.6874 21.9642 24.6874 21.5231C24.6874 20.4186 23.792 19.5231 22.6874 19.5231H20.0002V14.2222C20.0002 13.601 19.7115 13.015 19.219 12.6365C18.3432 11.9633 17.0876 12.1276 16.4144 13.0033L7.92723 24.0449C4.0568 22.4446 1.3335 18.6321 1.3335 14.1834C1.3335 8.29235 6.10912 3.51672 12.0002 3.51672C16.5267 3.51672 20.3947 6.33627 21.9436 10.3149C22.3936 10.2286 22.8583 10.1834 23.3335 10.1834C27.3836 10.1834 30.6668 13.4666 30.6668 17.5167C30.6668 21.5669 27.3836 24.8501 23.3335 24.8501H22.6515ZM17.3335 22.1898H21.3335L14.6668 30.8565V24.8565H10.6668L17.3335 16.1834V22.1898Z" fill="#414D5C"/>
</g>
</svg>
